<!DOCTYPE svg PUBLIC "-//W3C//DTD SVG 1.1//EN" "http://www.w3.org/Graphics/SVG/1.1/DTD/svg11.dtd">
<!-- Uploaded to: SVG Repo, www.svgrepo.com, Transformed by: SVG Repo Mixer Tools -->
<svg fill="#a5a5a5" height="800px" width="800px" version="1.1" id="Layer_1" xmlns="http://www.w3.org/2000/svg" xmlns:xlink="http://www.w3.org/1999/xlink" viewBox="0 0 512 512" xml:space="preserve">
<g id="SVGRepo_bgCarrier" stroke-width="0"/>
<g id="SVGRepo_tracerCarrier" stroke-linecap="round" stroke-linejoin="round"/>
<g id="SVGRepo_iconCarrier"> <g> <g> <g> <path d="M136.533,349.677c-23.526,0-42.667,19.14-42.667,42.667c0,20.605,14.682,37.844,34.133,41.808v43.525 c0,4.71,3.823,8.533,8.533,8.533s8.533-3.823,8.533-8.533v-43.525c19.451-3.964,34.133-21.203,34.133-41.808 C179.2,368.817,160.06,349.677,136.533,349.677z M136.533,417.944c-14.114,0-25.6-11.486-25.6-25.6s11.486-25.6,25.6-25.6 s25.6,11.486,25.6,25.6S150.647,417.944,136.533,417.944z"/> <path d="M375.467,349.677c-23.526,0-42.667,19.14-42.667,42.667c0,20.605,14.682,37.844,34.133,41.808v43.525 c0,4.71,3.823,8.533,8.533,8.533s8.533-3.823,8.533-8.533v-43.525c19.451-3.964,34.133-21.203,34.133-41.808 C418.133,368.817,398.993,349.677,375.467,349.677z M375.467,417.944c-14.114,0-25.6-11.486-25.6-25.6s11.486-25.6,25.6-25.6 s25.6,11.486,25.6,25.6S389.581,417.944,375.467,417.944z"/> <path d="M495.294,254.515C505.627,243.771,512,229.192,512,213.143c0-32.939-26.795-59.733-59.733-59.733 c-2.472,0-4.904,0.169-7.298,0.462l-33.862-67.725c-0.003-0.006-0.005-0.013-0.009-0.02L383.1,30.123 c-0.894-1.785-2.419-3.015-4.182-3.697c-0.02-0.008-0.037-0.019-0.057-0.026c-0.085-0.032-0.176-0.051-0.262-0.081 c-1.872-0.645-3.972-0.682-5.875-0.12c-2.058,0.608-3.879,1.905-4.89,3.924l-2.807,5.615l-66.36,132.721l-3.513-7.027 c-0.003-0.006-0.005-0.013-0.008-0.019l-12.56-25.117l-18.95-37.9c-0.724-1.447-1.86-2.532-3.201-3.256 c-4.022-2.17-9.898-1.086-12.068,3.254l-31.43,62.868l-3.603,7.205l-41.16-82.319c-0.003-0.007-0.006-0.014-0.009-0.021 l-27.998-56.004c-0.888-1.773-2.398-2.996-4.146-3.681c-0.032-0.013-0.061-0.03-0.094-0.043 c-0.076-0.029-0.156-0.045-0.232-0.072c-1.879-0.655-3.992-0.694-5.905-0.129c-2.058,0.608-3.879,1.905-4.89,3.924l-2.808,5.618 L67.027,153.871c-2.393-0.293-4.823-0.461-7.293-0.461C26.795,153.41,0,180.205,0,213.143c0,16.05,6.373,30.629,16.708,41.373 l-15.81,31.613c-1.314,2.645-1.178,5.786,0.375,8.303c1.553,2.509,4.301,4.045,7.262,4.045H51.2v59.733 c0,4.71,3.823,8.533,8.533,8.533s8.533-3.823,8.533-8.533v-59.733h93.864h0.004h34.751c3.753,26.12,24.46,46.827,50.581,50.581 v85.953c0,4.71,3.823,8.533,8.533,8.533s8.533-3.823,8.533-8.533v-85.953c26.12-3.753,46.827-24.46,50.581-50.581h34.75 c0.001,0,0.001,0,0.002,0c0.001,0,0.001,0,0.002,0h93.865v59.733c0,4.71,3.823,8.533,8.533,8.533c4.71,0,8.533-3.823,8.533-8.533 v-59.733h42.668c2.961,0,5.7-1.536,7.253-4.045c1.562-2.517,1.698-5.658,0.375-8.303L495.294,254.515z M494.933,213.143 c0,16.118-8.986,30.175-22.209,37.431c-0.108,0.059-0.217,0.117-0.326,0.176c-0.433,0.233-0.873,0.456-1.315,0.674 c-0.208,0.102-0.416,0.205-0.625,0.303c-0.335,0.159-0.674,0.309-1.014,0.459c-0.295,0.13-0.59,0.262-0.888,0.385 c-0.227,0.094-0.458,0.181-0.688,0.272c-2.019,0.793-4.096,1.435-6.216,1.914c-0.109,0.024-0.216,0.052-0.325,0.075 c-0.452,0.098-0.906,0.185-1.361,0.268c-0.203,0.037-0.407,0.075-0.611,0.109c-0.404,0.068-0.809,0.129-1.215,0.186 c-0.279,0.039-0.558,0.074-0.838,0.107c-0.353,0.042-0.706,0.082-1.06,0.116c-0.377,0.035-0.756,0.062-1.135,0.087 c-0.275,0.018-0.549,0.041-0.824,0.054c-0.668,0.031-1.339,0.051-2.015,0.051c-23.526,0-42.666-19.141-42.666-42.667 c0-0.133,0.007-0.264,0.008-0.396c0.005-0.536,0.016-1.071,0.041-1.603c0.012-0.262,0.033-0.522,0.05-0.783 c0.027-0.419,0.057-0.838,0.096-1.254c0.024-0.26,0.054-0.519,0.083-0.778c0.049-0.432,0.103-0.862,0.164-1.29 c0.032-0.224,0.065-0.447,0.1-0.67c0.082-0.514,0.174-1.025,0.274-1.532c0.025-0.127,0.048-0.256,0.074-0.383 c2.286-11.004,8.822-20.467,17.809-26.591c0.086-0.058,0.171-0.116,0.257-0.174c0.37-0.248,0.747-0.485,1.125-0.722 c0.252-0.156,0.501-0.316,0.756-0.467c0.113-0.068,0.229-0.131,0.343-0.197c3.499-2.029,7.334-3.59,11.435-4.582 c0.191-0.046,0.374-0.11,0.56-0.169c3.055-0.697,6.228-1.077,9.491-1.077C475.793,170.477,494.933,189.617,494.933,213.143z M375.465,53.031l18.677,37.346l-18.68,48.026l-18.671-48.025L375.465,53.031z M277.43,164.16l-21.427,26.795l-21.436-26.795 L256,121.295l14.988,29.975L277.43,164.16z M136.531,53.031l18.677,37.346l-18.68,48.026l-18.67-48.023L136.531,53.031z M59.733,170.477c3.268,0,6.446,0.382,9.505,1.081c0.182,0.057,0.362,0.12,0.549,0.165c4.05,0.979,7.838,2.516,11.301,4.507 c0.174,0.101,0.351,0.198,0.523,0.301c0.209,0.124,0.414,0.255,0.621,0.383c0.43,0.268,0.858,0.537,1.277,0.819 c0.042,0.028,0.083,0.056,0.124,0.084c9.045,6.139,15.62,15.656,17.895,26.725c0.003,0.017,0.006,0.034,0.01,0.051 c0.128,0.625,0.239,1.256,0.339,1.89c0.021,0.134,0.041,0.269,0.06,0.404c0.078,0.531,0.146,1.065,0.204,1.602 c0.018,0.169,0.038,0.337,0.054,0.507c0.052,0.541,0.093,1.086,0.125,1.633c0.008,0.143,0.02,0.285,0.027,0.429 c0.033,0.692,0.053,1.387,0.053,2.086c0,23.526-19.14,42.666-42.666,42.667c-0.004,0-0.008,0-0.011,0 c-0.671,0-1.337-0.02-2-0.051c-0.284-0.013-0.566-0.036-0.849-0.055c-0.37-0.025-0.739-0.05-1.106-0.084 c-0.363-0.034-0.725-0.075-1.086-0.118c-0.269-0.032-0.538-0.066-0.806-0.103c-0.416-0.058-0.831-0.12-1.244-0.19 c-0.192-0.032-0.384-0.068-0.575-0.103c-0.466-0.086-0.932-0.174-1.394-0.275c-0.093-0.02-0.185-0.043-0.278-0.064 c-2.132-0.479-4.221-1.125-6.252-1.922c-0.23-0.091-0.462-0.178-0.69-0.273c-0.296-0.122-0.588-0.253-0.881-0.382 c-0.343-0.151-0.686-0.303-1.024-0.464c-0.206-0.097-0.41-0.198-0.615-0.298c-0.446-0.22-0.89-0.445-1.327-0.681 c-0.106-0.056-0.211-0.113-0.316-0.17c-13.226-7.255-22.213-21.313-22.213-37.433C17.067,189.617,36.207,170.477,59.733,170.477z M22.342,281.41l8.107-16.205c1.832,1.03,3.719,1.955,5.646,2.785c0.281,0.121,0.562,0.24,0.845,0.357 c0.52,0.215,1.044,0.42,1.57,0.62c0.554,0.211,1.113,0.412,1.675,0.607c0.345,0.119,0.689,0.238,1.036,0.351 c0.464,0.152,0.93,0.299,1.399,0.44c0.251,0.075,0.505,0.144,0.757,0.215c0.838,0.239,1.682,0.461,2.535,0.663 c0.295,0.07,0.59,0.139,0.886,0.205c0.478,0.106,0.956,0.211,1.438,0.305c0.659,0.13,1.321,0.248,1.985,0.355 c0.326,0.052,0.653,0.1,0.98,0.147v9.152H22.342z M68.267,272.258c28.91-4.153,51.202-29.073,51.202-59.114 c0-0.946-0.03-1.885-0.073-2.821c-0.01-0.203-0.022-0.404-0.034-0.607c-0.045-0.801-0.106-1.598-0.182-2.391 c-0.013-0.137-0.024-0.275-0.038-0.411c-0.201-1.945-0.499-3.864-0.883-5.755c-0.005-0.026-0.011-0.052-0.016-0.079 c-3.338-16.314-13.33-30.373-27.408-38.915c-0.138-0.084-0.277-0.166-0.416-0.249c-0.509-0.303-1.023-0.599-1.543-0.888 c-0.378-0.212-0.757-0.424-1.141-0.628c-0.007-0.004-0.013-0.007-0.02-0.01c-1.276-0.679-2.581-1.309-3.909-1.897l23.752-47.508 l21.019,54.05c1.28,3.277,4.437,5.444,7.953,5.444c3.524,0,6.682-2.167,7.962-5.444l21.022-54.057l38.282,76.565l-46.933,93.867 H68.267V272.258z M256,332.61c-23.526,0-42.667-19.14-42.667-42.667c0-23.526,19.14-42.666,42.665-42.667 c23.526,0.001,42.665,19.141,42.665,42.667c0,0.011,0.002,0.022,0.002,0.034C298.647,313.488,279.515,332.61,256,332.61z M315.125,281.41c-0.013-0.091-0.032-0.181-0.045-0.272c-0.061-0.411-0.135-0.816-0.205-1.224 c-0.09-0.531-0.18-1.063-0.285-1.589c-0.085-0.428-0.18-0.852-0.274-1.276c-0.11-0.5-0.223-0.998-0.345-1.493 c-0.107-0.431-0.222-0.859-0.338-1.286c-0.131-0.481-0.266-0.96-0.409-1.436c-0.128-0.428-0.261-0.854-0.399-1.279 c-0.151-0.467-0.309-0.93-0.472-1.392c-0.148-0.422-0.299-0.843-0.456-1.26c-0.173-0.458-0.355-0.911-0.539-1.364 c-0.166-0.41-0.332-0.82-0.507-1.225c-0.197-0.454-0.404-0.903-0.612-1.351c-0.181-0.392-0.359-0.787-0.549-1.174 c-0.225-0.461-0.464-0.913-0.701-1.367c-0.19-0.365-0.374-0.733-0.571-1.093c-0.283-0.516-0.583-1.022-0.88-1.529 c-0.172-0.293-0.336-0.592-0.513-0.882c-0.464-0.76-0.945-1.508-1.441-2.245c-0.209-0.311-0.431-0.611-0.646-0.918 c-0.312-0.446-0.622-0.893-0.946-1.33c-0.245-0.33-0.501-0.651-0.752-0.976c-0.311-0.401-0.62-0.803-0.94-1.196 c-0.267-0.328-0.543-0.647-0.817-0.969c-0.321-0.377-0.642-0.753-0.971-1.121c-0.285-0.319-0.577-0.632-0.869-0.944 c-0.335-0.359-0.672-0.715-1.015-1.065c-0.299-0.305-0.602-0.606-0.908-0.904c-0.353-0.345-0.71-0.685-1.071-1.021 c-0.31-0.288-0.622-0.574-0.938-0.856c-0.373-0.333-0.752-0.659-1.133-0.982c-0.318-0.27-0.636-0.54-0.96-0.803 c-0.397-0.323-0.802-0.637-1.208-0.95c-0.32-0.247-0.638-0.496-0.963-0.737c-0.434-0.321-0.877-0.63-1.32-0.94 c-0.31-0.216-0.615-0.438-0.929-0.649c-0.513-0.344-1.037-0.673-1.561-1.001c-0.255-0.16-0.505-0.328-0.763-0.484 c-0.781-0.473-1.573-0.93-2.376-1.368c-0.21-0.115-0.427-0.218-0.639-0.331c-0.604-0.32-1.21-0.637-1.827-0.937 c-0.32-0.156-0.648-0.299-0.971-0.449c-0.518-0.241-1.036-0.481-1.562-0.707c-0.358-0.154-0.721-0.296-1.082-0.443 c-0.502-0.204-1.004-0.407-1.512-0.597c-0.38-0.143-0.765-0.276-1.149-0.411c-0.5-0.176-1.001-0.348-1.506-0.511 c-0.394-0.127-0.791-0.247-1.188-0.366c-0.507-0.151-1.015-0.297-1.528-0.435c-0.403-0.109-0.807-0.214-1.213-0.314 c-0.517-0.128-1.037-0.247-1.559-0.361c-0.408-0.089-0.816-0.178-1.227-0.258c-0.534-0.105-1.073-0.198-1.612-0.289 c-0.404-0.068-0.806-0.138-1.213-0.198c-0.566-0.083-1.138-0.151-1.709-0.218c-0.386-0.045-0.77-0.097-1.158-0.134 c-0.635-0.062-1.276-0.104-1.916-0.146c-0.33-0.022-0.657-0.053-0.988-0.069c-0.965-0.047-1.936-0.073-2.912-0.074 c-0.009,0-0.018-0.001-0.027-0.001c0,0-0.001,0-0.001,0s-0.001,0-0.001,0c-0.987,0-1.968,0.027-2.943,0.075 c-0.315,0.015-0.625,0.045-0.939,0.065c-0.659,0.043-1.317,0.086-1.97,0.15c-0.373,0.036-0.741,0.086-1.112,0.129 c-0.588,0.069-1.176,0.138-1.759,0.224c-0.392,0.058-0.78,0.126-1.17,0.191c-0.555,0.093-1.109,0.189-1.658,0.297 c-0.397,0.078-0.791,0.164-1.185,0.25c-0.537,0.117-1.072,0.239-1.603,0.371c-0.393,0.097-0.783,0.199-1.173,0.303 c-0.527,0.142-1.05,0.291-1.571,0.447c-0.384,0.115-0.767,0.231-1.148,0.353c-0.521,0.167-1.037,0.345-1.551,0.526 c-0.37,0.13-0.741,0.259-1.107,0.396c-0.525,0.197-1.044,0.406-1.562,0.617c-0.345,0.141-0.692,0.276-1.034,0.423 c-0.548,0.235-1.087,0.486-1.627,0.737c-0.302,0.141-0.609,0.275-0.908,0.42c-0.657,0.319-1.303,0.656-1.946,0.998 c-0.172,0.092-0.349,0.176-0.521,0.27c-0.81,0.441-1.608,0.901-2.394,1.378c-0.227,0.138-0.447,0.286-0.673,0.427 c-0.555,0.347-1.109,0.696-1.652,1.06c-0.296,0.199-0.583,0.408-0.875,0.611c-0.462,0.322-0.923,0.644-1.375,0.978 c-0.311,0.23-0.615,0.469-0.922,0.705c-0.421,0.324-0.841,0.65-1.253,0.985c-0.311,0.253-0.617,0.513-0.923,0.772 c-0.394,0.334-0.786,0.671-1.172,1.015c-0.305,0.272-0.605,0.548-0.904,0.826c-0.374,0.348-0.743,0.7-1.108,1.057 c-0.294,0.287-0.585,0.576-0.873,0.87c-0.357,0.364-0.708,0.734-1.055,1.107c-0.279,0.3-0.559,0.599-0.832,0.904 c-0.344,0.384-0.679,0.776-1.013,1.169c-0.261,0.307-0.524,0.611-0.778,0.923c-0.336,0.412-0.661,0.834-0.987,1.255 c-0.236,0.306-0.477,0.607-0.708,0.918c-0.347,0.467-0.679,0.945-1.012,1.422c-0.193,0.276-0.394,0.547-0.582,0.827 c-0.504,0.749-0.994,1.509-1.464,2.282c-0.152,0.25-0.292,0.508-0.441,0.761c-0.318,0.539-0.636,1.078-0.937,1.628 c-0.194,0.353-0.374,0.715-0.56,1.073c-0.24,0.46-0.482,0.918-0.71,1.384c-0.191,0.39-0.369,0.787-0.552,1.182 c-0.205,0.443-0.41,0.886-0.605,1.335c-0.18,0.416-0.35,0.837-0.521,1.258c-0.177,0.437-0.353,0.875-0.52,1.317 c-0.165,0.437-0.322,0.877-0.477,1.318c-0.153,0.436-0.302,0.874-0.446,1.314c-0.148,0.454-0.29,0.91-0.427,1.369 c-0.13,0.435-0.253,0.873-0.373,1.312c-0.129,0.472-0.256,0.945-0.374,1.422c-0.106,0.43-0.203,0.863-0.3,1.297 c-0.11,0.494-0.221,0.987-0.319,1.486c-0.082,0.418-0.152,0.84-0.226,1.26c-0.091,0.521-0.184,1.04-0.261,1.565 c-0.009,0.062-0.022,0.123-0.031,0.186h-20.941l45.026-90.052c0,0,0,0,0,0l5.195-10.39l23.179,28.974 c1.613,2.022,4.07,3.2,6.665,3.2c2.586,0,5.043-1.178,6.656-3.2l23.181-28.968l50.218,100.436H315.125z M355.142,281.41 l-46.933-93.867l38.281-76.561l21.02,54.053c1.28,3.277,4.437,5.444,7.953,5.444c3.524,0,6.682-2.167,7.962-5.444l21.021-54.054 l23.753,47.51c-1.749,0.773-3.454,1.627-5.111,2.558c-0.496,0.276-0.986,0.558-1.472,0.847c-0.155,0.093-0.311,0.184-0.465,0.279 c-14.041,8.524-24.01,22.534-27.367,38.796c-0.02,0.098-0.041,0.196-0.06,0.294c-0.181,0.902-0.347,1.809-0.488,2.724 c-0.005,0.03-0.01,0.059-0.015,0.088c-0.138,0.908-0.253,1.822-0.349,2.742c-0.025,0.235-0.043,0.471-0.065,0.707 c-0.063,0.673-0.114,1.348-0.155,2.026c-0.018,0.294-0.036,0.587-0.049,0.882c-0.036,0.817-0.059,1.637-0.062,2.461 c0,0.083-0.006,0.164-0.006,0.247c0,30.041,22.291,54.96,51.2,59.114v9.152H355.142z M460.8,281.41v-9.152 c0.331-0.048,0.661-0.096,0.99-0.149c0.655-0.106,1.308-0.223,1.959-0.351c0.498-0.097,0.992-0.206,1.486-0.315 c0.269-0.06,0.537-0.123,0.805-0.186c0.927-0.22,1.846-0.461,2.756-0.724c0.185-0.053,0.37-0.103,0.555-0.158 c0.491-0.147,0.977-0.301,1.463-0.46c0.31-0.101,0.618-0.208,0.926-0.314c0.614-0.212,1.224-0.432,1.829-0.664 c0.494-0.188,0.986-0.381,1.474-0.582c0.292-0.121,0.584-0.244,0.874-0.369c1.924-0.828,3.808-1.752,5.639-2.78l8.107,16.205 H460.8z"/> </g> </g> </g> </g>
</svg>