<!DOCTYPE svg PUBLIC "-//W3C//DTD SVG 1.1//EN" "http://www.w3.org/Graphics/SVG/1.1/DTD/svg11.dtd">
<!-- Uploaded to: SVG Repo, www.svgrepo.com, Transformed by: SVG Repo Mixer Tools -->
<svg version="1.1" id="_x32_" xmlns="http://www.w3.org/2000/svg" xmlns:xlink="http://www.w3.org/1999/xlink" width="800px" height="800px" viewBox="0 0 512 512" xml:space="preserve" fill="#a5a5a5">
<g id="SVGRepo_bgCarrier" stroke-width="0"/>
<g id="SVGRepo_tracerCarrier" stroke-linecap="round" stroke-linejoin="round"/>
<g id="SVGRepo_iconCarrier"> <style type="text/css">  .st0{fill:#a5a5a5;}  </style> <g> <path class="st0" d="M461.75,447.5l-83.703-125.344h46.75l-84.141-126.047h46.281L256,0L125.047,196.109h46.281L87.188,322.156 h46.75L50.25,447.5h189.625V512h8.063h16.125h8.063v-64.5H461.75z M176.047,299.938h-46.734l84.125-126.016h-46.281L256,40.875 l88.828,133.047h-46.297l84.156,126.016h-46.75l83.703,125.359H264.063v-37.391l63.047-72.031l-12.141-10.625l-50.906,58.188 v-59.406l50.844-58.109l-12.141-10.609l-38.703,44.234V171.469h-16.125v108.063l-38.703-44.219l-12.141,10.609l50.844,58.109 v59.391l-50.906-58.172l-12.125,10.625l63.031,72.031v37.391H92.359L176.047,299.938z"/> </g> </g>
</svg>